<svg xmlns="http://www.w3.org/2000/svg" width="71.284" height="70.962" viewBox="0 0 71.284 70.962"><defs><style>.a{fill:#fefefe;}.b{fill:#00bcd4;}</style></defs><g transform="translate(-2287.676 467.276)"><path class="a" d="M2354.306-437.922h-26.474v-11.734l3.879-3.1.776-2.2v-6.53l2.812-3.976h5.77l1.019,3.006,1.26,2.812,4.461.971h2.909l2.327,3.716-.194,3.265.873,3.394,2.715,2.036.97,5.625-.97,2.715Z"/><path class="a" d="M2332.486-418.817l-12.51,12.316-8.688,6.982h-14.78l-4.17-6.012-1.746-5.334v-4.073l1.649-7.794,5.333-4.716,5.916-7.746,2.813-2.921,4.269-2.521,4.426,1.883v2.675l-1.118,4.364-8.159,7.927-4.073,3.728-3.006,4.032-1.067,6.132,4.17,3.006,3.394.291,4.655-2.327,5.916-4.267,2.036-3.111,3.485-4.162,2.915-2.844,2.4-1.52Z"/><path class="b" d="M2354.5-450.446a7.151,7.151,0,0,0,1.06-3.754,7.152,7.152,0,0,0-7.126-7.162,7.057,7.057,0,0,0-2.909.626,8.228,8.228,0,0,0-8.026-6.54,8.236,8.236,0,0,0-8.206,8.248,8.239,8.239,0,0,0,1.607,4.9,8.886,8.886,0,0,0-5.216,8.057v8.792a2.089,2.089,0,0,0,2.089,2.089h29.1a2.089,2.089,0,0,0,2.089-2.089v-6.7A7.2,7.2,0,0,0,2354.5-450.446Zm-6.066-7.275a3.5,3.5,0,0,1,3.479,3.521,3.5,3.5,0,0,1-3.479,3.521,3.5,3.5,0,0,1-3.479-3.521A3.5,3.5,0,0,1,2348.435-457.721Zm-10.935-5.944a4.618,4.618,0,0,1,4.588,4.637,4.618,4.618,0,0,1-4.588,4.637,4.619,4.619,0,0,1-4.589-4.637A4.619,4.619,0,0,1,2337.5-463.665Zm-8.162,17.505a5.171,5.171,0,0,1,5.226-5.1h6.115a5.351,5.351,0,0,1,2.09.424,7.794,7.794,0,0,0-4.7,6.946v5.632h-8.729Zm26.108,7.9h-14.022v-5.806c0-1.859,1.933-3.372,4.31-3.372h5.4c2.376,0,4.31,1.513,4.31,3.372Z"/><path class="b" d="M2328.423-427.168a2.089,2.089,0,0,0-1.482-.617,2.089,2.089,0,0,0-1.482.617l-16.718,16.836a4.978,4.978,0,0,1-3.556,1.484,4.982,4.982,0,0,1-3.557-1.484,5.127,5.127,0,0,1,0-7.2l16.677-16.8a2.088,2.088,0,0,0,0-2.943l-5.872-5.914a2.089,2.089,0,0,0-1.482-.617,2.087,2.087,0,0,0-1.482.617l-16.677,16.794a17.73,17.73,0,0,0,0,24.92,17.347,17.347,0,0,0,12.393,5.161,17.344,17.344,0,0,0,12.393-5.161l16.718-16.836a2.089,2.089,0,0,0,0-2.943Zm-17.472-11.586,3.308,3.56-3.687,3.712-3.308-3.559Zm3.431,34.716c-2.893,2.913-11.927,6.472-18.234.04-5.106-4.949-6.765-13.207-.769-19.246l9.855-9.925,3.371,3.4-9.879,9.949c-4.124,4.154-3.306,9.528.4,12.853,4.179,3.941,9.233,2.37,11.911-.486l9.855-9.925,3.372,3.395Zm11.761-11.99-3.328-3.352,3.727-3.755,3.329,3.353Z"/><path class="b" d="M2316.154-448.121a2.076,2.076,0,0,0,.931.221,2.088,2.088,0,0,0,1.871-1.157l2.055-4.117a2.089,2.089,0,0,0-.936-2.8,2.088,2.088,0,0,0-2.8.936l-2.056,4.117A2.088,2.088,0,0,0,2316.154-448.121Z"/><path class="b" d="M2344.13-429.72l-4.143,1.954a2.089,2.089,0,0,0-1,2.78,2.089,2.089,0,0,0,1.89,1.2,2.078,2.078,0,0,0,.89-.2l4.143-1.955a2.087,2.087,0,0,0,1-2.78A2.088,2.088,0,0,0,2344.13-429.72Z"/></g></svg>