<svg xmlns="http://www.w3.org/2000/svg" width="123.146" height="102.077" viewBox="0 0 123.146 102.077"><defs><style>.a{fill:#19bbd2;}.b{fill:#fff;}.c{fill:#00bcd4;}</style></defs><path class="a" d="M227.057,137.992l-2.317,2.318a7.976,7.976,0,0,0,11.284,0l-2.317-2.318a4.81,4.81,0,0,1-6.65,0" transform="translate(-158.442 -103.039)"/><path class="b" d="M216.494,134.594l-.038,3.277a1.1,1.1,0,0,0,1.085,1.086h1.491a.047.047,0,0,0,.039-.039v-4.286Z" transform="translate(-163.731 -105.208)"/><path class="b" d="M239.837,138.956a1.1,1.1,0,0,0,1.086-1.086v-3.238l-2.577-.039-.039,4.324.039.039Z" transform="translate(-149.78 -105.209)"/><path class="c" d="M227.619,135.421a2.428,2.428,0,1,0-4.709.8h4.563a2.412,2.412,0,0,0,.146-.8" transform="translate(-159.704 -106.23)"/><path class="c" d="M233.08,132.994a2.427,2.427,0,0,0-2.427,2.427,2.455,2.455,0,0,0,.144.8h4.563a2.4,2.4,0,0,0-2.281-3.229" transform="translate(-154.667 -106.23)"/><path class="b" d="M206.565,174.777a9.9,9.9,0,1,0-9.9,9.9,9.909,9.909,0,0,0,9.9-9.9m-3.467,4.545a1.093,1.093,0,0,1-1.093,1.093H191.593a1.092,1.092,0,0,1-1.091-1.093v-9.573a1.092,1.092,0,0,1,1.091-1.093h10.412a1.093,1.093,0,0,1,1.093,1.093Z" transform="translate(-182.685 -85.873)"/><path class="a" d="M197.943,162.878a13.175,13.175,0,1,0,13.176,13.175,13.189,13.189,0,0,0-13.176-13.175m-9.9,13.175a9.9,9.9,0,1,1,9.9,9.9,9.909,9.909,0,0,1-9.9-9.9" transform="translate(-183.962 -87.151)"/><path class="c" d="M200.551,167.184H190.139a1.094,1.094,0,0,0-1.093,1.093v9.573a1.094,1.094,0,0,0,1.093,1.093h10.412a1.094,1.094,0,0,0,1.093-1.093v-9.573a1.094,1.094,0,0,0-1.093-1.093M193.2,177.211v-8.3l6.075,4.147Z" transform="translate(-181.231 -84.402)"/><path class="b" d="M191.581,176.536l6.075-4.149-6.075-4.147Z" transform="translate(-179.612 -83.727)"/><path class="b" d="M206.564,156.473a9.9,9.9,0,1,0-9.9,9.9,9.909,9.909,0,0,0,9.9-9.9m-3.678,6.986H191.049V149.226h11.836Z" transform="translate(-182.685 -97.559)"/><path class="b" d="M198.94,149.194h-8.559V160.15h8.559Zm-1.774,9.1h-5.012v-1.638h5.012Zm0-2.939h-5.012v-1.638h5.012Zm0-2.938h-5.012v-1.638h5.012Z" transform="translate(-180.378 -95.887)"/><path class="a" d="M197.943,144.575a13.175,13.175,0,1,0,13.176,13.175,13.189,13.189,0,0,0-13.176-13.175m-9.9,13.175a9.9,9.9,0,1,1,9.9,9.9,9.909,9.909,0,0,1-9.9-9.9" transform="translate(-183.962 -98.836)"/><path class="a" d="M189.381,162.426h11.836V148.193H189.381Zm1.638-12.593h8.559v10.956h-8.559Z" transform="translate(-181.017 -96.526)"/><rect class="a" width="5.012" height="1.638" transform="translate(11.776 54.894)"/><rect class="a" width="5.012" height="1.638" transform="translate(11.776 57.832)"/><rect class="a" width="5.012" height="1.638" transform="translate(11.776 60.771)"/><path class="b" d="M207.684,138.253a10.7,10.7,0,1,0-10.7,10.7,10.717,10.717,0,0,0,10.7-10.7M195.3,132.42h3.277v7.086H195.3Zm3.364,11.666h-3.277V142.1h3.277Z" transform="translate(-182.999 -109.706)"/><path class="a" d="M198.257,125.549a13.981,13.981,0,1,0,13.981,13.981,14,14,0,0,0-13.981-13.981m-10.7,13.981a10.7,10.7,0,1,1,10.7,10.7,10.717,10.717,0,0,1-10.7-10.7" transform="translate(-184.276 -110.983)"/><rect class="a" width="3.277" height="7.086" transform="translate(12.299 22.713)"/><rect class="a" width="3.277" height="1.987" transform="translate(12.386 32.392)"/><path class="b" d="M267.84,166.735a12.793,12.793,0,0,1,10.407-12.549v-10.6a.2.2,0,0,0-.2-.195H206.436a.2.2,0,0,0-.195.195v45.529a.2.2,0,0,0,.195.195h28.535v-30.4h14.841v30.4h28.239a.2.2,0,0,0,.2-.195v-9.831a12.794,12.794,0,0,1-10.407-12.55" transform="translate(-170.253 -99.591)"/><rect class="b" width="8.287" height="33.49" transform="translate(67.996 62.593)"/><path class="b" d="M264.841,161.341a9.5,9.5,0,1,0-9.5,9.5,9.514,9.514,0,0,0,9.5-9.5" transform="translate(-144.973 -94.198)"/><path class="a" d="M294.675,183.8A12.786,12.786,0,0,0,282.8,171.07V160.655a3.475,3.475,0,0,0-3.472-3.472H265.116v-5.32a4.329,4.329,0,0,0,.832-2.543v-3.238a3.3,3.3,0,0,0-.832-2.178v-5.64a21.606,21.606,0,1,0-43.212,0v5.528a3.292,3.292,0,0,0-.927,2.289v3.238a4.313,4.313,0,0,0,.927,2.658v5.205H207.713a3.476,3.476,0,0,0-3.472,3.472v45.529a3.476,3.476,0,0,0,3.472,3.472h28.535v4.57h-31.57V217.5h76.055v-3.277H251.089v-4.57h28.239a3.475,3.475,0,0,0,3.472-3.472v-9.649A12.786,12.786,0,0,0,294.675,183.8m-15.347,22.576H251.089v-30.4H236.248v30.4H207.713a.2.2,0,0,1-.195-.195V160.655a.194.194,0,0,1,.195-.195h71.615a.194.194,0,0,1,.195.195v10.6a12.771,12.771,0,0,0,0,25.1v9.831a.2.2,0,0,1-.195.195m-39.8-27.128h8.287v33.49h-8.287Zm-12.657-28.884a.044.044,0,0,1-.038.039h-1.491a1.1,1.1,0,0,1-1.086-1.086l.039-3.277,2.576.039Zm3.277-.949v-3.336c0-.023-.007-.043-.007-.064v-4.3h6.1l3.1-4.9,3.064,4.9h14.4v4.171c0,.066-.018.126-.018.192v3.588a13.255,13.255,0,0,1-2.592,7.512H232.75a13.25,13.25,0,0,1-2.605-7.765m29.949-3.375,2.577.039v3.238a1.1,1.1,0,0,1-1.086,1.086h-1.491l-.038-.039ZM281.9,193.3a9.5,9.5,0,1,1,9.5-9.5,9.511,9.511,0,0,1-9.5,9.5m-23.818-36.121a16.591,16.591,0,0,0,1.406-3.562,3.261,3.261,0,0,0,.611.062h1.491c.087,0,.169-.021.254-.026v3.526ZM243.51,119.936a18.35,18.35,0,0,1,18.329,18.329v4.5h-1.745l-.02,0v-4.326h-15.86l-4.866-7.778-4.915,7.778h-4.245a13.217,13.217,0,0,1,3.868-8.435l-2.317-2.317a16.464,16.464,0,0,0-4.828,10.751h-.049v4.327l-.031,0h-1.65v-4.5a18.35,18.35,0,0,1,18.329-18.329M225.18,153.667c.054,0,.1.016.159.016h1.491a3.278,3.278,0,0,0,.624-.064,16.488,16.488,0,0,0,1.406,3.564h-3.68Z" transform="translate(-171.529 -116.659)"/></svg>