<svg xmlns="http://www.w3.org/2000/svg" width="79.465" height="87.855" viewBox="0 0 79.465 87.855"><defs><style>.a{fill:#fff;}.b{fill:#00bcd4;}</style></defs><path class="a" d="M346,168.487v-18.11a2.461,2.461,0,0,0-2.459-2.459h-7.971v-.17a36.418,36.418,0,0,0,.4,23.2h7.575A2.461,2.461,0,0,0,346,168.487" transform="translate(-330.592 -110.642)"/><path class="a" d="M377.846,151.282a17.177,17.177,0,0,1-8.431-2.209,17.254,17.254,0,0,1-25.168-10.8,36.627,36.627,0,0,0-8.641,12.41h6.829A5.729,5.729,0,0,1,347.615,154v-.375h10.791a6.263,6.263,0,0,1,4.4,1.82l8.1,8.1a5.578,5.578,0,0,1-7.888,7.889l-6.087-6.087a2.916,2.916,0,0,0-2.079-.86h-2.281V161.21h2.281a6.17,6.17,0,0,1,4.4,1.82l6.087,6.087a2.3,2.3,0,1,0,3.252-3.256l-8.1-8.1a2.961,2.961,0,0,0-2.079-.86H348.17v17.63a5.707,5.707,0,0,1-.085.842l.378-.378,4.591,4.591a2.515,2.515,0,0,0,1.766.731h20.058a2.515,2.515,0,0,0,1.347-.392l19.049-12.141a2.636,2.636,0,1,0-2.874-4.419l-13.4,8.89-1.81-2.73,13.4-8.89a5.913,5.913,0,1,1,6.447,9.913l-19.05,12.141a5.778,5.778,0,0,1-3.107.9H354.821a5.73,5.73,0,0,1-4.083-1.691l-3.827-3.829a5.707,5.707,0,0,1-4.476,2.194h-6.226A36.445,36.445,0,1,0,394.5,138.584a17.312,17.312,0,0,1-16.656,12.7" transform="translate(-329.482 -116.688)"/><path class="b" d="M397.493,143.121c.01-.242.038-.478.038-.723A17.278,17.278,0,0,0,371.8,127.31,17.278,17.278,0,0,0,346.07,142.4c0,.133.018.26.021.392a39.736,39.736,0,1,0,51.4.331m-17.261-14.743A14.021,14.021,0,1,1,366.21,142.4a14.037,14.037,0,0,1,14.022-14.02m-16.863,0a13.957,13.957,0,0,1,5.413,1.09,17.219,17.219,0,0,0,0,25.863,14.02,14.02,0,1,1-5.413-26.952m-28.224,44.844a36.316,36.316,0,0,1,1.7-11.014v.169h7.971a2.462,2.462,0,0,1,2.459,2.459v18.111a2.462,2.462,0,0,1-2.459,2.459h-7.575a36.285,36.285,0,0,1-2.1-12.185M371.6,209.679a36.5,36.5,0,0,1-33.007-21h6.226a5.712,5.712,0,0,0,4.476-2.194l3.827,3.829a5.73,5.73,0,0,0,4.083,1.691h20.059a5.792,5.792,0,0,0,3.1-.9l19.05-12.143a5.912,5.912,0,1,0-6.447-9.911l-13.4,8.889,1.81,2.731,13.4-8.89a2.636,2.636,0,1,1,2.874,4.419l-19.049,12.141a2.51,2.51,0,0,1-1.345.392H357.207A2.515,2.515,0,0,1,355.44,188l-4.591-4.591-.378.377a5.707,5.707,0,0,0,.085-.841V165.317h10.235a2.963,2.963,0,0,1,2.079.862l8.1,8.1a2.3,2.3,0,1,1-3.252,3.254l-6.085-6.085a6.178,6.178,0,0,0-4.4-1.822h-2.281V172.9h2.281a2.917,2.917,0,0,1,2.079.862l6.087,6.085a5.577,5.577,0,0,0,7.888-7.887l-8.1-8.1a6.265,6.265,0,0,0-4.4-1.822H350v.375a5.729,5.729,0,0,0-5.181-3.315h-6.829a36.637,36.637,0,0,1,8.641-12.408,17.254,17.254,0,0,0,25.168,10.8A17.254,17.254,0,0,0,396.888,147a36.432,36.432,0,0,1-25.288,62.68" transform="translate(-331.868 -125.101)"/><path class="a" d="M356.558,155.141a13.922,13.922,0,0,0,5.413-1.09,17.219,17.219,0,0,1,0-25.863,14.02,14.02,0,1,0-5.413,26.952" transform="translate(-325.057 -123.824)"/><path class="a" d="M366.85,155.143a14.021,14.021,0,1,0-14.022-14.022,14.037,14.037,0,0,0,14.022,14.022m1.358-12.11a4.347,4.347,0,0,0-1.62-.939,18.933,18.933,0,0,1-1.973-.855,6.361,6.361,0,0,1-1.424-.975,3.945,3.945,0,0,1-.922-1.3,4.347,4.347,0,0,1-.331-1.774,3.931,3.931,0,0,1,1.134-2.907,4.791,4.791,0,0,1,3.012-1.324v-2.245h1.679V133a4.386,4.386,0,0,1,2.907,1.547,5.109,5.109,0,0,1,1.05,3.334h-3.034a2.907,2.907,0,0,0-.518-1.886,1.72,1.72,0,0,0-1.391-.624,1.768,1.768,0,0,0-1.332.488,1.856,1.856,0,0,0-.474,1.348,1.777,1.777,0,0,0,.462,1.281,5.1,5.1,0,0,0,1.717.986,18.918,18.918,0,0,1,2.06.949,5.942,5.942,0,0,1,1.365,1.009,3.854,3.854,0,0,1,.85,1.28,4.383,4.383,0,0,1,.295,1.673,3.921,3.921,0,0,1-1.113,2.9,4.875,4.875,0,0,1-3.064,1.312v2.087h-1.67V148.6a5.041,5.041,0,0,1-3.333-1.525,4.927,4.927,0,0,1-1.18-3.447h3.033a2.793,2.793,0,0,0,.593,1.915,2.161,2.161,0,0,0,1.7.665,2.082,2.082,0,0,0,1.46-.487,1.693,1.693,0,0,0,.534-1.317,1.923,1.923,0,0,0-.477-1.37" transform="translate(-318.486 -123.824)"/><path class="b" d="M363.366,144.8a2.166,2.166,0,0,1-1.7-.665,2.8,2.8,0,0,1-.593-1.915h-3.033a4.92,4.92,0,0,0,1.18,3.446,5.042,5.042,0,0,0,3.333,1.527v2.079h1.67V147.18a4.879,4.879,0,0,0,3.064-1.312,3.918,3.918,0,0,0,1.111-2.9,4.387,4.387,0,0,0-.293-1.674,3.87,3.87,0,0,0-.85-1.28,5.889,5.889,0,0,0-1.365-1.008,18.519,18.519,0,0,0-2.061-.949,5.132,5.132,0,0,1-1.717-.988,1.779,1.779,0,0,1-.46-1.28,1.86,1.86,0,0,1,.472-1.348,1.768,1.768,0,0,1,1.334-.488,1.717,1.717,0,0,1,1.389.624,2.9,2.9,0,0,1,.519,1.884h3.033a5.109,5.109,0,0,0-1.049-3.333,4.379,4.379,0,0,0-2.908-1.547v-2.277h-1.678v2.245a4.782,4.782,0,0,0-3.012,1.324,3.927,3.927,0,0,0-1.134,2.9,4.37,4.37,0,0,0,.329,1.774,3.957,3.957,0,0,0,.924,1.3,6.3,6.3,0,0,0,1.422.977,19,19,0,0,0,1.974.854,4.353,4.353,0,0,1,1.62.94,1.922,1.922,0,0,1,.477,1.368,1.7,1.7,0,0,1-.534,1.317,2.083,2.083,0,0,1-1.46.488" transform="translate(-315.161 -122.414)"/></svg>