<svg xmlns="http://www.w3.org/2000/svg" width="81.25" height="81.263" viewBox="0 0 81.25 81.263"><defs><style>.a{fill:#fefefe;}.b{fill:#00bcd4;}</style></defs><g transform="translate(-2497.517 471.014)"><path class="a" d="M2500.631-447.938l-2.334,8.993,1.167,7.853,1.946,1.415,1.981,1.486.283,14.446.354,15.974.637,3.608,1.981,2.476h3.978l2.621-.3,3.164-.385,2.122.684,2.971-2.83,1.2-14.942v-17.812l2.476,4.245,11.531,9.975,1.432.707,8.26-7.468,7-5.321.707,29.767,1.066,2.688,3.321,1.769,2.405-1.061,1.839-.778,3.891,1.061,3.466-.283,2.123-2.618-.283-26.741-.071-6.367,5.518-4.644v-8.373l-1.627-6.155-5.376-3.82-2.547-1.061,2.759-3.113,1.132-8.489-2.688-3.4-3.206-2.688h-5.587l-4.649,3.4-1.839,5.523,1.419,3.744,1.481,3.113,1.981,1.839-4.315,1.891-4.369,3.2-1.291,3.953-.424,1.706-4.882.283-3.962,2.83-3.82-.284-3.537-2.334-4.1-.424-.708-3.962-3.82-4.245-5.235-2.335.283-2.052,2.971-3.042.778-7-2.9-4.032-4.952-1.769h-3.4l-5.579,3.184-1.212,3.608v5.872l1.769,2.264,3.113,2.405-5.518,2.071Z"/><path class="b" d="M2538.142-429.065a1.311,1.311,0,0,1,1.31,1.31h2.621a3.926,3.926,0,0,0-2.621-3.69v-2.862h-2.621v2.862a3.924,3.924,0,0,0-2.4,5,3.921,3.921,0,0,0,3.709,2.621,1.31,1.31,0,0,1,1.31,1.31,1.309,1.309,0,0,1-1.31,1.31,1.31,1.31,0,0,1-1.31-1.31h-2.62a3.927,3.927,0,0,0,2.621,3.69v2.862h2.621v-2.862a3.92,3.92,0,0,0,2.4-5,3.922,3.922,0,0,0-3.709-2.622,1.31,1.31,0,0,1-1.31-1.31,1.311,1.311,0,0,1,1.31-1.311Z"/><path class="b" d="M2569.6-452.349a10.484,10.484,0,0,0,1.625-14.737,10.485,10.485,0,0,0-14.738-1.624,10.484,10.484,0,0,0-1.624,14.737,10.474,10.474,0,0,0,1.624,1.624,11.815,11.815,0,0,0-9.108,10.289,10.4,10.4,0,0,0-1.465-.11,10.516,10.516,0,0,0-7.479,3.1l-.291.291-.291-.291a10.48,10.48,0,0,0-8.944-2.989,11.818,11.818,0,0,0-9.108-10.289,10.483,10.483,0,0,0,1.623-14.736,10.483,10.483,0,0,0-14.736-1.623,10.483,10.483,0,0,0-1.623,14.736,10.461,10.461,0,0,0,1.623,1.623,11.809,11.809,0,0,0-9.169,11.488v5.242a9.176,9.176,0,0,0,5.242,8.276v31.694a5.873,5.873,0,0,0,5.85,5.9,5.871,5.871,0,0,0,4.634-2.236,5.873,5.873,0,0,0,8.249.974,5.871,5.871,0,0,0,2.235-4.635V-422.51l14.415,12.2,14.415-12.2v26.862a5.874,5.874,0,0,0,5.85,5.9,5.872,5.872,0,0,0,4.634-2.236,5.873,5.873,0,0,0,8.249.974,5.871,5.871,0,0,0,2.235-4.635v-31.694a9.175,9.175,0,0,0,5.242-8.276v-5.242A11.807,11.807,0,0,0,2569.6-452.349Zm-14.42-8.168a7.864,7.864,0,0,1,7.863-7.863,7.863,7.863,0,0,1,7.863,7.863,7.863,7.863,0,0,1-7.863,7.863A7.871,7.871,0,0,1,2555.178-460.517Zm10.657,10.484-2.794,4.19-2.793-4.19Zm-60.455-10.484a7.864,7.864,0,0,1,7.863-7.863,7.863,7.863,0,0,1,7.863,7.863,7.863,7.863,0,0,1-7.863,7.863A7.871,7.871,0,0,1,2505.38-460.517Zm10.484,10.484a2.62,2.62,0,0,1-2.621,2.621,2.621,2.621,0,0,1-2.621-2.621h5.242Zm-15.726,9.173a9.181,9.181,0,0,1,7.873-9.07,5.233,5.233,0,0,0,5.3,5.16,5.233,5.233,0,0,0,5.159-5.16,9.175,9.175,0,0,1,7.848,8.577,10.736,10.736,0,0,0-2.6,1.562v-3.69h-2.616v7.863h-13.1a1.312,1.312,0,0,1-1.31-1.31v-6.553h-2.627v5.242h-3.931Zm20.968,45.212a3.275,3.275,0,0,1-3.276,3.276,3.276,3.276,0,0,1-3.276-3.276V-421.2h-2.622v25.553a3.275,3.275,0,0,1-3.276,3.276,3.276,3.276,0,0,1-3.276-3.276v-30.9a9.131,9.131,0,0,0,1.31.1h14.416Zm.655-33.417H2506.69a6.561,6.561,0,0,1-6.552-6.552h4.173A3.926,3.926,0,0,0,2508-433h13.76a1.966,1.966,0,0,1,2.01,1.922,1.965,1.965,0,0,1-1.921,2.009c-.03,0-.059,0-.089,0Zm30.8,2.664a7.844,7.844,0,0,1-1.506,1.735l-12.909,10.92-12.91-10.924a7.875,7.875,0,0,1-1.5-1.731v-.5a4.559,4.559,0,0,0,2.189-6.064,4.556,4.556,0,0,0-2.189-2.189v-.785a7.94,7.94,0,0,1,10.987-2.317,7.949,7.949,0,0,1,1.284,1.042l2.144,2.144,2.144-2.144a7.9,7.9,0,0,1,5.626-2.33,7.991,7.991,0,0,1,6.645,3.608v.784a4.56,4.56,0,0,0-2.188,6.065,4.561,4.561,0,0,0,2.188,2.188Zm18.347,30.753a3.275,3.275,0,0,1-3.276,3.276,3.276,3.276,0,0,1-3.276-3.276V-421.2h-2.621v25.553a3.275,3.275,0,0,1-3.276,3.276,3.276,3.276,0,0,1-3.276-3.276v-30.8h14.415a9.109,9.109,0,0,0,1.31-.1Zm-1.31-33.417h-15.071a1.966,1.966,0,0,1-2.01-1.921,1.968,1.968,0,0,1,1.922-2.01h13.848a3.925,3.925,0,0,0,3.69-2.621h4.173a6.559,6.559,0,0,1-6.552,6.551Zm6.552-9.173h-3.929v-5.243h-2.623v6.552a1.312,1.312,0,0,1-1.31,1.31h-13.1v-7.862h-2.627v3.69a10.711,10.711,0,0,0-2.6-1.562,9.183,9.183,0,0,1,7.268-8.484l5.812,8.719,5.813-8.719a9.186,9.186,0,0,1,7.292,8.977Z"/><path class="b" d="M2561.731-439.549h2.621v2.621h-2.621Z"/></g></svg>