<svg xmlns="http://www.w3.org/2000/svg" width="87.966" height="87.992" viewBox="0 0 87.966 87.992"><defs><style>.a{fill:#fefefe;}.b{fill:#00bcd4;}</style></defs><g transform="translate(-2629.467 476.071)"><path class="a" d="M2639.73-439.094l-1.511,6.131v5.152l1.511,4.546,1.452,4.969,4.412,3.828,1.281,2.592-.721,2.416-4.958.466-5.021,2.443-3.775,2.681-1.514,5.089v8.617l1.514.413h39.584l.5-2.621-.5-8.492-2.026-3.006-2.645-2.681-4.126-1.365-5.864-1.544-1.311-1.49.12-2.8,1.191-.525,6.015,2.729,8.646,1.631,12.039-1.039,1.156,3.034-.915,3.2-2.525,2.743,2.284,3.187,1.868.562,2.581-2.164,4.037-.241,1.466,2.285v3.726l2.311.962,2.127-.361,1.239-1.4V-400.5l3.082-.962,2.208.481,2.044,2.2,1.683.562,2.4-1.8.722-1.082-.962-2.4-2.405-2.6v-1.8l1.323-1.953s3.366-.493,3.727-.493,2.885.493,2.885.493v-5.3l-3.847-.722-2.405-.481-1.442-2.408-.12-2.28,1.923-1.717,1.323-1.649-.962-2.218-1.683-1.166h-2.525l-1.2,2.074-1.249,1.31-2.6.687-7.6.962-16.861,9.032-16.1-3.108-14.375-16.59-3.367-5.65Z"/><circle class="a" cx="32.466" cy="32.466" r="32.466" transform="translate(2641.182 -474.801)"/><path class="b" d="M2657.323-423.265h-2.932a2.932,2.932,0,0,1-2.932,2.932,2.931,2.931,0,0,1-2.932-2.932h-2.933a5.865,5.865,0,0,0,5.865,5.865A5.864,5.864,0,0,0,2657.323-423.265Z"/><path class="b" d="M2677.579-440.858h7.6v-2.932h-7.6a4.4,4.4,0,0,0-2.663-2.662v-10.533h-2.932v10.533a4.387,4.387,0,0,0-2.685,5.594,4.386,4.386,0,0,0,5.594,2.685A4.391,4.391,0,0,0,2677.579-440.858Zm-5.6-1.466a1.466,1.466,0,0,1,1.466-1.466,1.466,1.466,0,0,1,1.466,1.466,1.466,1.466,0,0,1-1.466,1.466A1.466,1.466,0,0,1,2671.984-442.324Z"/><rect class="b" width="2.932" height="2.932" transform="translate(2671.984 -464.315)"/><rect class="b" width="2.932" height="2.932" transform="translate(2685.891 -456.838) rotate(-45)"/><rect class="b" width="2.932" height="2.932" transform="translate(2692.509 -443.79)"/><rect class="b" width="2.932" height="2.932" transform="translate(2685.891 -427.811) rotate(-45)"/><rect class="b" width="2.932" height="2.932" transform="translate(2671.984 -423.265)"/><rect class="b" width="2.932" height="2.932" transform="translate(2656.864 -456.838) rotate(-45)"/><path class="b" d="M2715.967-417.4h-5.082a14.2,14.2,0,0,0-.987-2.371l3.6-3.6a1.467,1.467,0,0,0,0-2.073l-4.149-4.149a1.467,1.467,0,0,0-2.073,0l-3.6,3.6c-.189-.1-.387-.183-.587-.274a33.72,33.72,0,0,0-13.565-45.717,33.719,33.719,0,0,0-45.717,13.566,33.723,33.723,0,0,0-4.079,16.1c0,.488.024.965.046,1.444a14.562,14.562,0,0,0-2.978,8.819v4.4a1.466,1.466,0,0,0,1.466,1.466v1.466a13.2,13.2,0,0,0,7.33,11.8v1.739l-8.57,2.331a10.31,10.31,0,0,0-7.557,9.9v9.412a1.466,1.466,0,0,0,1.467,1.466h41.05a1.466,1.466,0,0,0,1.466-1.466v-9.412a10.308,10.308,0,0,0-7.561-9.9l-8.566-2.33v-1.531a33.541,33.541,0,0,0,19.82,3.91,1.417,1.417,0,0,0,.7.207h5.082a14.337,14.337,0,0,0,.986,2.371l-3.6,3.6a1.466,1.466,0,0,0,0,2.074l4.149,4.149a1.467,1.467,0,0,0,2.073,0l3.6-3.6a14.4,14.4,0,0,0,2.37.987v5.081a1.466,1.466,0,0,0,1.466,1.466h5.865a1.466,1.466,0,0,0,1.466-1.466v-5.081a14.4,14.4,0,0,0,2.37-.987l3.6,3.6a1.467,1.467,0,0,0,2.073,0l4.149-4.149a1.468,1.468,0,0,0,0-2.074l-3.6-3.6a14.237,14.237,0,0,0,.987-2.371h5.082a1.466,1.466,0,0,0,1.466-1.466v-5.864A1.466,1.466,0,0,0,2715.967-417.4Zm-76.237-14.661a11.729,11.729,0,0,1,11.729-11.729,11.728,11.728,0,0,1,11.728,11.729v2.86a7.284,7.284,0,0,1-5.518-3.98l-.5-1a1.465,1.465,0,0,0-1.077-.791,1.488,1.488,0,0,0-1.272.41l-2.429,2.429a10.2,10.2,0,0,1-7.255,3.006h-5.406Zm24.924,7.33V-426.2a1.466,1.466,0,0,0,1.466-1.466v-4.4a14.6,14.6,0,0,0-14.535-14.661,14.569,14.569,0,0,0-2.7.24,24.937,24.937,0,0,1,28.736-20.443,24.937,24.937,0,0,1,20.443,28.736,24.936,24.936,0,0,1-28.736,20.443,24.925,24.925,0,0,1-5.782-1.714A13.137,13.137,0,0,0,2664.654-424.731Zm-23.458,0V-426.2h3.94a13.1,13.1,0,0,0,9.328-3.865l1.026-1.026a10.178,10.178,0,0,0,6.231,4.579v1.778a10.262,10.262,0,0,1-10.262,10.263A10.263,10.263,0,0,1,2641.2-424.731Zm1.466,17.376,2.053-.558,5.278,4.4v3.708h2.932v-3.711l5.278-4.4,2.052.558v2.542l-8.8,8.8-8.8-8.8Zm8.8-4.181a13.159,13.159,0,0,0,2.932-.34v1.806a1.448,1.448,0,0,0,.512,1.089l-3.444,2.869-3.444-2.867a1.452,1.452,0,0,0,.512-1.091v-1.806A13.149,13.149,0,0,0,2651.459-411.536Zm19.059,12.579v7.946H2632.4v-7.946a7.365,7.365,0,0,1,5.4-7.074l1.931-.52v2.345a1.467,1.467,0,0,0,.43,1.037l10.262,10.263a1.467,1.467,0,0,0,2.073,0l10.263-10.263a1.466,1.466,0,0,0,.429-1.037v-2.345l1.927.524A7.371,7.371,0,0,1,2670.518-398.957Zm-10.556-15.687a13.314,13.314,0,0,0,2.113-2.267,27.855,27.855,0,0,0,36.816-14.015,27.854,27.854,0,0,0-14.015-36.816,27.854,27.854,0,0,0-36.816,14.015,27.855,27.855,0,0,0-2.249,8.138,14.624,14.624,0,0,0-3.078,1.77,30.739,30.739,0,0,1,32.238-29.164,30.74,30.74,0,0,1,29.164,32.239,30.74,30.74,0,0,1-32.239,29.163,30.742,30.742,0,0,1-11.934-3.07Zm31.147,1.042a33.888,33.888,0,0,0,6.464-5.179,5.844,5.844,0,0,1,5.12,6.489,5.845,5.845,0,0,1-6.489,5.121,5.847,5.847,0,0,1-5.161-5.831,5.388,5.388,0,0,1,.059-.607Zm23.391,2.066h-4.735a1.467,1.467,0,0,0-1.429,1.138,11.357,11.357,0,0,1-1.5,3.611,1.465,1.465,0,0,0,.2,1.829l3.367,3.362-2.081,2.082-3.362-3.372a1.466,1.466,0,0,0-1.83-.2,11.326,11.326,0,0,1-3.611,1.516,1.466,1.466,0,0,0-1.137,1.422v4.736h-2.933v-4.736a1.465,1.465,0,0,0-1.137-1.429,11.316,11.316,0,0,1-3.611-1.5,1.466,1.466,0,0,0-1.83.2l-3.362,3.368-2.082-2.082,3.372-3.362a1.465,1.465,0,0,0,.2-1.829,11.338,11.338,0,0,1-1.5-3.611,1.406,1.406,0,0,0-.156-.371q1.46-.55,2.849-1.226a8.8,8.8,0,0,0,9.728,7.754,8.8,8.8,0,0,0,7.754-9.728,8.8,8.8,0,0,0-5.872-7.328q.945-1.181,1.784-2.443a10.818,10.818,0,0,1,1.553.812,1.464,1.464,0,0,0,1.832-.195l3.358-3.367,2.081,2.082-3.372,3.361a1.468,1.468,0,0,0-.2,1.83,11.341,11.341,0,0,1,1.516,3.611,1.466,1.466,0,0,0,1.422,1.138h4.735Z"/></g></svg>