<svg xmlns="http://www.w3.org/2000/svg" width="70.648" height="70.652" viewBox="0 0 70.648 70.652"><defs><style>.a{fill:#fefefe;}.b{fill:#00bcd4;}</style></defs><g transform="translate(-2378.003 458.673)"><circle class="a" cx="33.641" cy="33.641" r="33.641" transform="translate(2380.489 -458.07)"/><path class="b" d="M2443.448-441.765l3.424-3.424a2.069,2.069,0,0,0,0-2.926,2.067,2.067,0,0,0-1.288-.6l-6.352-.536-.536-6.353a2.067,2.067,0,0,0-2.234-1.888,2.067,2.067,0,0,0-1.289.6l-3.425,3.425a35.3,35.3,0,0,0-48.542,11.654,35.3,35.3,0,0,0,5.161,43.429,35.3,35.3,0,0,0,49.922.045A35.3,35.3,0,0,0,2443.448-441.765Zm-8.193-5.4a2.071,2.071,0,0,0,1.887,1.888l3.655.308-4.947,4.947-5.4-.455-.455-5.4,4.947-4.947Zm-14.893,23.816a7.039,7.039,0,0,1-7.033,7.045,7.04,7.04,0,0,1-7.045-7.033,7.039,7.039,0,0,1,7.033-7.045,7.034,7.034,0,0,1,3.3.819l-4.752,4.754a2.07,2.07,0,0,0,0,2.925,2.07,2.07,0,0,0,2.925,0l4.752-4.751A6.972,6.972,0,0,1,2420.362-423.349Zm-.736-9.218a11.183,11.183,0,0,0-15.542,2.926,11.183,11.183,0,0,0,2.926,15.542,11.184,11.184,0,0,0,15.542-2.926,11.182,11.182,0,0,0,0-12.616l5.9-5.908a19.466,19.466,0,0,1-2.9,27.377,19.466,19.466,0,0,1-27.377-2.9,19.466,19.466,0,0,1,2.9-27.377,19.465,19.465,0,0,1,24.447-.025Zm15.74,31.258a31.166,31.166,0,0,1-44.075,0,31.166,31.166,0,0,1,0-44.075,31.178,31.178,0,0,1,37.435-5.065l-2.333,2.333a2.068,2.068,0,0,0-.606,1.41c0,.075,0,.151.006.227l.279,3.3a23.6,23.6,0,0,0-32.615,7.085,23.6,23.6,0,0,0,7.085,32.614,23.6,23.6,0,0,0,32.615-7.085,23.6,23.6,0,0,0,0-25.529l3.3.279c.058,0,.116.007.174.007h.112a1.186,1.186,0,0,0,.134-.011l.082-.012c.044-.007.087-.015.13-.025l.081-.021c.042-.011.084-.024.125-.038l.08-.029c.04-.016.08-.033.12-.052.025-.011.051-.023.076-.036s.079-.043.117-.066l.069-.041c.041-.027.08-.056.12-.086.018-.014.037-.026.055-.041a2.023,2.023,0,0,0,.162-.145l2.332-2.338A31.179,31.179,0,0,1,2435.366-401.309Z"/></g></svg>